<svg xmlns="http://www.w3.org/2000/svg" viewBox="0 0 374.59 374.59"><defs><style>.cls-1{fill:#b7b697;}</style></defs><title>halo2</title><g id="Layer_2" data-name="Layer 2"><g id="Layer_1-2" data-name="Layer 1"><path class="cls-1" d="M367.6,202.15l6.75-.72-63.56-7.22q.18-3.26.18-6.55c0-2.74-.1-5.46-.28-8.15l57.3-1,6.6-1.59-64,1.13a126.56,126.56,0,0,0-2-14.56L365.3,155l6.33-2.44L308.29,162a121.29,121.29,0,0,0-3.89-14.17L359.56,132l6-3.24L303.9,146.46a121.19,121.19,0,0,0-5.72-13.52L350.87,110l5.49-4-58.84,25.6A123.06,123.06,0,0,0,290.08,119l49.3-29.64,4.92-4.68-55.05,33.1a124.88,124.88,0,0,0-9-11.57l45.05-35.86L329.56,65l-50.3,40a123.76,123.76,0,0,0-10.43-10.31l40-41.45,3.54-5.79L267.72,93.78a124.43,124.43,0,0,0-11.67-8.87l34.26-46.33,2.76-6.2L254.82,84.09a123.71,123.71,0,0,0-12.72-7.28L270,26.4l1.92-6.51L240.78,76.15a123.76,123.76,0,0,0-13.57-5.56L248.31,17l1.06-6.7L225.81,70.13a119.91,119.91,0,0,0-14.17-3.74l13.92-55.91.17-6.79L210.19,66.11a122.29,122.29,0,0,0-14.55-1.85L202.15,7,201.44.25l-7.27,63.92q-3.42-.19-6.89-.2c-2.61,0-5.2.09-7.77.25l-1-57.62L176.9,0,178,64.32a121.76,121.76,0,0,0-14.53,2L155,9.29,152.54,3l9.52,63.6a122.43,122.43,0,0,0-14.15,3.84L132,15l-3.24-6,17.74,61.81A122.9,122.9,0,0,0,133,76.54L110,23.72l-4-5.48,25.65,59A123.79,123.79,0,0,0,119,84.58L89.32,35.21l-4.68-4.92L117.78,85.4a123.23,123.23,0,0,0-11.61,9L70.31,49.3,65,45l40,50.31a125.16,125.16,0,0,0-10.35,10.38l-41.41-40-5.79-3.54,46.22,44.62a126.23,126.23,0,0,0-8.93,11.63L38.58,84.28l-6.2-2.75L84,119.7a122.92,122.92,0,0,0-7.35,12.7L26.4,104.57l-6.5-1.92L76,133.72a124.11,124.11,0,0,0-5.62,13.57L17,126.28l-6.7-1,59.61,23.46a121.9,121.9,0,0,0-3.81,14.19L10.48,149l-6.79-.17,62.12,15.47a122.57,122.57,0,0,0-1.91,14.58L7,172.44l-6.74.72,63.56,7.22c-.14,2.41-.22,4.84-.22,7.28s.08,5,.23,7.43l-57.22,1L0,197.69l63.91-1.13a124.67,124.67,0,0,0,1.92,14.58L9.29,219.61,3,222.05l63.15-9.46a125,125,0,0,0,3.83,14.22L15,242.57l-6,3.24L70.42,228.2a124,124,0,0,0,5.66,13.6L23.72,264.58l-5.48,4,58.5-25.46a123.77,123.77,0,0,0,7.4,12.73L35.21,285.27,30.29,290,85,257.08a125.65,125.65,0,0,0,9,11.67L49.3,304.28,45,309.56l49.9-39.71a124.83,124.83,0,0,0,10.43,10.4l-39.61,41-3.54,5.79,44.26-45.85a123.91,123.91,0,0,0,11.69,9L84.28,336l-2.75,6.21L119.4,291a123,123,0,0,0,12.77,7.36l-27.6,49.82-1.92,6.51L133.49,299a122.37,122.37,0,0,0,13.63,5.63l-20.84,52.95-1,6.7,23.29-59.18a123.48,123.48,0,0,0,14.26,3.78L149,364.11l-.17,6.79,15.37-61.71a123.55,123.55,0,0,0,14.64,1.87l-6.43,56.54.72,6.75,7.18-63.2q3.45.19,6.94.2c2.62,0,5.23-.09,7.81-.25l1,56.89,1.59,6.6L196.56,311a123,123,0,0,0,14.62-2l8.43,56.28,2.44,6.33-9.42-62.9a121,121,0,0,0,14.24-3.88l15.7,54.71,3.24,6-17.55-61.16a122.27,122.27,0,0,0,13.59-5.72l22.73,52.23,4,5.49L243.17,298a123,123,0,0,0,12.72-7.46l29.38,48.86L290,344.3l-32.83-54.61a125.63,125.63,0,0,0,11.63-9l35.53,44.64,5.28,4.27-39.71-49.89a124.93,124.93,0,0,0,10.36-10.48l41.08,39.65,5.79,3.54-45.9-44.3a125.65,125.65,0,0,0,8.91-11.73l45.92,34,6.21,2.76L290.9,255.12a123.94,123.94,0,0,0,7.31-12.79l50,27.69,6.51,1.92L298.86,241a124.77,124.77,0,0,0,5.57-13.63l53.18,20.93,6.7,1.06L304.89,226a123.49,123.49,0,0,0,3.72-14.24l55.51,13.82,6.78.17-62-15.44a125.21,125.21,0,0,0,1.81-14.6ZM187.28,306.35A118.69,118.69,0,1,1,306,187.66,118.82,118.82,0,0,1,187.28,306.35Z"/></g></g></svg>