<svg xmlns="http://www.w3.org/2000/svg" viewBox="0 0 396.91 396.91"><defs><style>.cls-1{fill:#b9b497;}</style></defs><title>halo1</title><g id="Layer_2" data-name="Layer 2"><g id="Layer_1-2" data-name="Layer 1"><path class="cls-1" d="M393.66,199.88l3.25-2.86H313.42a115,115,0,0,0-3.53-26.94l77.49-20.77,2.39-3.6-80.62,21.6a114.05,114.05,0,0,0-10.44-25.09l69.51-40.13L369.6,98l-72.32,41.76a116.2,116.2,0,0,0-16.56-21.54L337.5,61.43l.27-4.32L278.7,116.19a115.35,115.35,0,0,0-21.54-16.56L297.3,30.11l-.86-4.24L254.69,98.19a114.79,114.79,0,0,0-25.1-10.43l20.77-77.49-1.92-3.88L226.83,87a115.1,115.1,0,0,0-27-3.53V3.25L197,0V83.49A115,115,0,0,0,170.08,87L149.31,9.53l-3.6-2.4,21.6,80.63a114.51,114.51,0,0,0-25.09,10.43L102.09,28.68,98,27.3l41.76,72.33a115.35,115.35,0,0,0-21.54,16.56L61.43,59.41l-4.32-.27,59.08,59.07a115.35,115.35,0,0,0-16.56,21.54L30.11,99.61l-4.24.86,72.32,41.75a114.51,114.51,0,0,0-10.43,25.09L10.27,146.55l-3.88,1.92L87,170.08A114.49,114.49,0,0,0,83.49,197H3.25L0,199.88H83.49a114.57,114.57,0,0,0,3.53,27L9.53,247.6l-2.4,3.6,80.63-21.61a114.79,114.79,0,0,0,10.43,25.1L28.68,294.82l-1.38,4.1,72.33-41.76a115.35,115.35,0,0,0,16.56,21.54L59.41,335.48l-.27,4.31,59.07-59.07a115.78,115.78,0,0,0,21.54,16.56L99.61,366.79l.86,4.25,41.75-72.33a114.05,114.05,0,0,0,25.09,10.44l-20.76,77.49,1.92,3.88,21.61-80.63A115,115,0,0,0,197,313.42v80.24l2.86,3.25V313.42a115.1,115.1,0,0,0,27-3.53l20.77,77.49,3.6,2.4-21.61-80.63a114.33,114.33,0,0,0,25.1-10.44l40.13,69.51,4.1,1.38-41.76-72.32a115.78,115.78,0,0,0,21.54-16.56l56.78,56.78,4.31.27L280.72,278.7a116.2,116.2,0,0,0,16.56-21.54l69.51,40.14,4.24-.86-72.32-41.75a114.33,114.33,0,0,0,10.44-25.1l77.49,20.77,3.88-1.92-80.63-21.61a115.1,115.1,0,0,0,3.53-27ZM198.45,310.43a112,112,0,1,1,112-112A112.11,112.11,0,0,1,198.45,310.43Z"/><path class="cls-1" d="M198.45,93.57A104.88,104.88,0,1,0,303.33,198.45,105,105,0,0,0,198.45,93.57Zm0,208.76A103.88,103.88,0,1,1,302.33,198.45,104,104,0,0,1,198.45,302.33Z"/></g></g></svg>