<svg version="1.1" xmlns="http://www.w3.org/2000/svg" xmlns:xlink="http://www.w3.org/1999/xlink" width="24px" height="24px" viewBox="0,0,256,256"><g fill="#46423f" fill-rule="nonzero" stroke="none" stroke-width="1" stroke-linecap="butt" stroke-linejoin="miter" stroke-miterlimit="10" stroke-dasharray="" stroke-dashoffset="0" font-family="none" font-weight="none" font-size="none" text-anchor="none" style="mix-blend-mode: normal"><g transform="scale(10.66667,10.66667)"><g id="grid_system" font-family="Inter, apple-system, BlinkMacSystemFont, &quot;Helvetica Neue&quot;, &quot;Segoe UI&quot;, &quot;Fira Sans&quot;, Roboto, Oxygen, Ubuntu, &quot;Droid Sans&quot;, Arial, sans-serif" font-weight="400" font-size="16" text-anchor="start"></g><g id="_icons"><path d="M5,7h14c0.6,0 1,-0.4 1,-1c0,-0.6 -0.4,-1 -1,-1h-14c-0.6,0 -1,0.4 -1,1c0,0.6 0.4,1 1,1z"></path><path d="M5,13h14c0.6,0 1,-0.4 1,-1c0,-0.6 -0.4,-1 -1,-1h-14c-0.6,0 -1,0.4 -1,1c0,0.6 0.4,1 1,1z"></path><path d="M5,19h14c0.6,0 1,-0.4 1,-1c0,-0.6 -0.4,-1 -1,-1h-14c-0.6,0 -1,0.4 -1,1c0,0.6 0.4,1 1,1z"></path></g></g></g></svg>